<svg xmlns="http://www.w3.org/2000/svg" version="1.1" xmlns:xlink="http://www.w3.org/1999/xlink" width="225.7" height="272.7"><svg xmlns="http://www.w3.org/2000/svg" version="1.1" xmlns:xlink="http://www.w3.org/1999/xlink" width="225.7" height="272.7"><svg id="Layer_1" xmlns="http://www.w3.org/2000/svg" xmlns:xlink="http://www.w3.org/1999/xlink" version="1.1" viewBox="0 0 225.7 272.7">
  <!-- Generator: Adobe Illustrator 30.2.1, SVG Export Plug-In . SVG Version: 2.1.1 Build 1)  -->
  <defs>
    <style>
      .st0 {
        fill: none;
      }

      .st1 {
        fill: #abcec7;
      }

      .st2 {
        clip-path: url(#clippath);
      }
    </style>
    <clipPath id="clippath">
      <rect class="st0" y="-3.6" width="225.7" height="276.2"></rect>
    </clipPath>
  </defs>
  <g class="st2">
    <path class="st1" d="M114.8,76.2c2.7-1.5,4.5-3.7,6.4-5.8,11.4-12.6,22.6-25.3,33.2-38.5,4.8-5.9,9.5-12,15-17.2,5.6-5.3,11.8-9.6,18.9-12.7,5.5-2.4,10.9-2.4,16.6-.7,8.3,2.4,13.2,7.7,16,15.6,2.6,7.3,3.5,14.8,4,22.4.1,1.7.2,3.4,0,5.1-.7,12.7-.5,25.5-2.1,38.2-1.2,9.8-2.9,19.6-4.3,29.4-2.1,13.9-4.1,27.9-6.2,41.8-2.8,18.5-7.3,36.6-12.7,54.5-2.8,9.3-5.8,18.5-8.7,27.8-2.1,6.6-5.6,12.5-8.4,18.7-.8,1.9-2.5,3.3-3.7,5,.3,1.4,1.6,2,2.4,3,2.4,2.7,2.9,5.6,1.4,9-.6,1.3-1.5,1.7-2.7,1.4-2.7-.8-5.5-1.6-8.1-2.8-7.8-3.5-15.6-7.1-23.4-10.7-2.1-1-4.1-1.6-6.5-1.8-4.9-.5-9.1-2.9-12.7-6.1-2.3-2-4.9-3.5-7.6-5-15.6-8.2-30.4-17.5-43.6-29.2-18.8-16.6-34.1-35.8-45.9-57.9-9.2-17.2-17.2-34.8-23.5-53.3-2.8-8.1-5-16.4-6.8-24.8-1.2-5.8-1.5-11.7-1.4-17.6,0-3.8,1.6-6.4,5.1-8.1,5.8-2.8,11.9-3.9,18.1-4.8,14.9-2,29.7-.3,44.3,2.7,3.7.8,7.4,1.8,11.1,2.8,13.4,3.8,25.7,9.5,35.8,19.5M138.2,87.4c1.5.7,2.5-.5,3.7-.9,5.9-2,11.9-2.6,18-2.3,4.1.2,5.3,1.4,6.1,5.4.3,1.7.5,3.4.3,5.1-.7,8.2-1.6,16.3-4.6,24-1.2,3.2-1.7,6.6-1.8,10-.9,26.8-.6,53.7-.4,80.6,0,5.5.7,11,1,16.5.1,1.5.8,2.5,2.5,2.4,1.1,0,1.8.6,1.8,1.7,0,1.5,1.2,2.3,1.9,3.4.3.5.7.9,1.3.9.7,0,.9-.6,1-1.2,1.7-6.4,3.4-12.9,5.2-19.3,6.3-22.6,10.9-45.5,14.5-68.7,2.6-16.4,5.6-32.6,8.7-48.9,2.1-11,4.3-22.1,5.1-33.3.4-5.3.8-10.6,1.4-15.9.9-8.2,1-16.3.5-24.5-.1-2.5-.7-4.9-1.2-7.3-.3-1.4-1.1-1.8-2.6-1.3-8.7,2.9-15.9,8.1-22.2,14.6-.5.5-.9,1.2-1.2,1.9-3.5,7.9-8.8,14.7-14.2,21.4-2.5,3.1-5,6.3-7.3,9.5-5.4,7.9-10.7,15.8-16.6,23.2-.7.8-1.6,1.6-1.3,2.9Z"></path>
  </g>
</svg></svg><style>@media (prefers-color-scheme: light) { :root { filter: none; } }
@media (prefers-color-scheme: dark) { :root { filter: invert(100%); } }
</style></svg>